<svg xmlns="http://www.w3.org/2000/svg" width="12" height="13" viewBox="0 0 12 13">
  <path fill="currentColor" fill-rule="evenodd" d="M5.077 5.525V.865A.839.839 0 0 1 5.89 0a.839.839 0 0 1 .812.864v4.66a.839.839 0 0 1-.812.869.839.839 0 0 1-.812-.868zM0 7.093c-.012-1.84.865-3.58 2.373-4.707a.855.855 0 0 1 1.17.142.829.829 0 0 1-.148 1.184 4.19 4.19 0 0 0-1.703 3.381c0 2.333 1.933 4.243 4.308 4.243s4.308-1.903 4.308-4.243a4.19 4.19 0 0 0-1.707-3.38.824.824 0 0 1-.163-1.167.854.854 0 0 1 1.166-.177c1.53 1.144 2.408 2.884 2.396 4.724C12 10.35 9.308 13 6 13s-6-2.65-6-5.907z"/>
</svg>
