<svg xmlns="http://www.w3.org/2000/svg" width="15" height="15" viewBox="0 0 15 15">
  <path fill="currentColor" fill-rule="evenodd" d="M14.838 5.943a7.5 7.5 0 1 1-2.956-4.53l-1.42 1.415A5.5 5.5 0 0 0 7.5 1.965 5.541 5.541 0 0 0 1.965 7.5 5.541 5.541 0 0 0 7.5 13.035c2.97 0 5.4-2.351 5.529-5.29l.027-.027 1.782-1.775zM7.89 7.463c1.187-1.177 2.458-2.434 3.684-3.647a2567.817 2567.817 0 0 0 1.861-1.846L15 3.515a1618.65 1618.65 0 0 1-2.294 2.273C11.36 7.12 9.977 8.488 8.74 9.715l-.713.706-.777-.638-3.314-2.735 1.415-1.682L7.89 7.464z"/>
</svg>
