<?xml version="1.0" encoding="utf-8"?> <svg version="1.1" id="Layer_1" xmlns="http://www.w3.org/2000/svg" xmlns:xlink="http://www.w3.org/1999/xlink" x="0px" y="0px" viewBox="0 0 333.5 287.7" style="enable-background:new 0 0 333.5 287.7;" xml:space="preserve"> <g> <g transform="translate(81 106)"> <path d="M85.8,176.9c-56,0-103.2-37.9-116.9-89.2c-0.1-0.3-0.2-0.5-0.2-0.8c-0.4-1.4-0.7-2.9-1-4.3l-5.3-1.9L-51,75.9 l-24-99.9l39.2,12.1l0.7,0.2l3.4,1v-3.9v-0.7V-102h234.9v86.7v0.7v3.9l3.4-1l0.7-0.2L246.5-24l-23.7,99.9l-13.5,4.8l-5.3,1.9 c-0.3,1.4-0.7,2.9-1,4.3c-0.1,0.3-0.1,0.5-0.2,0.8C188.9,139.1,141.8,176.9,85.8,176.9z M251.4-30.1l-44.1,13.6v-88.8v-0.7h-0.7 H-35h-0.7v0.7v88.8l-44.1-13.6l-1.2-0.4l0.3,1.2l25.9,108.2l0.1,0.4l0.4,0.1l17.8,6.4c1.6,6.7,3.8,13.3,6.5,19.8 c6.3,14.9,15.4,28.2,26.9,39.7c11.5,11.5,25,20.5,40,26.8c15.5,6.5,32,9.8,48.9,9.8s33.4-3.3,48.9-9.8c15-6.3,28.4-15.3,40-26.8 c11.5-11.5,20.6-24.8,26.9-39.7c2.7-6.4,4.9-13,6.5-19.7l18.1-6.5l0.4-0.1l0.1-0.4l25.7-108.1l0.3-1.2L251.4-30.1z"/> <path d="M-16.4-30.8c2.1-2.1,4.2-4,6.4-5.9c-0.1,4.4-0.1,8.9-0.2,13.3c0,2.5-0.1,4.9-0.1,7.4c-0.3,0.4-0.7,0.8-1,1.3 c-1.8,2.4-3.9,1.7-4.7-1.3c-0.2-0.8-0.3-1.8-0.3-2.9C-16.4-22.8-16.4-26.8-16.4-30.8z M-16-75.9c0-5.4,3.3-11,6-10.9h0.7 c-0.2,13.4-0.4,26.9-0.7,40.5c-0.3,0.1-0.5,0.3-0.8,0.4c-2.4,1.4-5.3-1.9-5.3-7.2C-16-60.7-16-68.3-16-75.9z M-9-28.2 c1.9-1.9,3.9-3.8,5.9-5.5c0.2-5.5,0.4-10.9,0.6-16.3c-2,0.9-4.1,1.9-6.1,2.9c0.1-3.8,0.1-7.6,0.2-11.4c2.5-0.8,5-1.6,7.5-2.4 c2.4-0.6,5.5,2.1,5.3,5.7C4.1-49.6,3.9-44,3.6-38.3c0,0.3-0.1,0.7-0.1,1.1c-0.7,3.8-3.6,9.8-5.8,12.1c-2.3,2.4-4.6,4.9-6.8,7.6 c0-2.4,0.1-4.9,0.1-7.3C-9-26-9-27.1-9-28.2z M-7.8-86.8h7.3c2.6,0.1,5.8,4.3,5.6,7.8c-0.1,2.9-0.3,5.7-0.4,8.6 c-2.2,0.5-4.4,1.1-6.6,1.8c0.1-2.9,0.2-5.9,0.3-8.8c-2.2,0.3-4.3,0.6-6.4,1C-8-79.9-7.9-83.4-7.8-86.8z M7-40.8 c0.7-13,1.4-25.9,2.2-38.6c0.2-3.6,3.7-7.5,6.4-7.4h1.2c-1,13.6-1.9,27.5-2.9,41.4c-0.1,2.1-0.3,4.2-0.4,6.2c0,0.2,0,0.5,0,0.7 c-0.4,0.3-0.8,0.5-1.1,0.8c-0.6,0.4-1.2,0.7-1.8,0.8c-1.8,0.3-3.4-0.9-3.5-3.4C7-40.4,7-40.6,7-40.8z M18.3-86.8h7.8 c2.6,0.1,5.7,3,5.5,5.5c-0.8,8.8-1.5,17.7-2.3,26.7c0.1,0,0.1,0.1,0.2,0.1c0.9,0.6,1.9,1.2,2.8,1.7c-1,1.2-2.1,2.5-3.1,3.8 c-0.6,0.8-1.2,1.6-1.9,2.5c-0.4-0.2-0.8-0.4-1.3-0.6c-1.2,1.4-2.4,2.5-3.5,3.1c-2.6,1.4-5.2,3-7.7,4.7c0-0.3,0-0.5,0.1-0.8 c0.1-2.1,0.3-4.1,0.4-6.2c0-0.1,0-0.3,0-0.4c1.1-0.6,2.2-1.2,3.2-1.8c1.1-0.6,2.2-1.1,3.2-1.6c0-0.1,0-0.2,0-0.4 c0.8-10,1.6-20,2.4-29.8c-2.2,0.2-4.4,0.4-6.6,0.6C17.9-82.1,18.1-84.5,18.3-86.8z M36.7-86.8h7.2c-0.8,8.9-1.6,18-2.4,27 c-0.2,1.8-0.3,3.6-0.5,5.3c-0.1,0.8-0.1,1.6-0.2,2.3c-0.4,0.1-0.8,0.3-1.2,0.4c-1.6,0.6-3.2,0.4-4.3-0.3c-0.9-0.6-1.5-1.5-1.4-2.6 c0.1-0.7,0.1-1.4,0.2-2.2C34.9-66.8,35.8-76.9,36.7-86.8z M51.9-86.8h7.2c-0.5,7.4-1.1,14.8-1.6,22.2c-0.1,1.3-0.2,2.6-0.3,3.9 c0,0.4-0.2,0.8-0.4,1.2c-1.1,1.8-4,3.9-6.3,4.5c-2.8,0.7-5.5,1.5-8.2,2.4c0.1-0.8,0.1-1.6,0.2-2.4c0.1-0.9,0.2-1.9,0.2-2.8 c2.3-0.6,4.6-1.2,6.9-1.7c0.1-1,0.2-2,0.3-3C50.5-70.7,51.2-78.8,51.9-86.8z M67.9-86.8h4.3c0.2,1.6,0.5,3.3,0.8,4.9 c-1.1,4.5-2.2,9.1-3.3,13.7c1.9-0.1,3.7-0.2,5.6-0.3c0.1,0.4,0.1,0.8,0.2,1.2c0.2,1,0.4,2,0.6,3c-2.5,0.1-5,0.3-7.4,0.6 c-0.2,0.7-0.3,1.4-0.5,2.1c-0.3,1.2-0.6,2.4-0.9,3.6c-2.7,0.3-5.4,0.8-8.1,1.3c0.3-1.1,0.7-2.3,1-3.4c0.5-1.8,1-3.5,1.6-5.2 C63.8-72.9,65.9-79.9,67.9-86.8z M79.8-86.8c1.4,6.4,3,12.7,4.6,19c0.4,1.6,0.8,3.2,1.3,4.8c0.3,1.2,0.7,2.5,1,3.7 c-2.7,0-5.4,0-8.2,0.2c-0.2-1.2-0.5-2.4-0.7-3.6c-0.3-1.6-0.6-3.2-0.9-4.8c-1.2-6.4-2.3-12.8-3.3-19.3H79.8z M95.8-86.8 c0.2,6.5,0.4,12.9,0.6,19.4c0.1,1.6,0.1,3.2,0.1,4.8c0,1.2,0.1,2.4,0.1,3.6c-2.6-0.2-5.2-0.3-7.8-0.4l0-3.7c0-1.6,0-3.2,0-4.8 c-0.1-6.3-0.1-12.7-0.2-19H95.8z M104.5-86.8c2.6,0,6.1,2.2,6.3,4.2c0.4,5.8,0.8,11.7,1.2,17.5c0.1,1.3,0.2,2.7,0.3,4 c0,0.3-0.1,0.6-0.2,0.9c-0.8,1.5-3.6,2.6-6,2.2c-2.6-0.4-5.2-0.6-7.8-0.9c0-1.2-0.1-2.4-0.1-3.6c0-0.2,0-0.4,0-0.7 c2.1,0.1,4.3,0.3,6.4,0.6c-0.1-1.3-0.1-2.7-0.2-4c-0.3-5.3-0.6-10.6-0.8-16c-2,0-4-0.1-6.1-0.1c-0.1-1.4-0.1-2.8-0.1-4.2 L104.5-86.8z M121.6-86.8c0.7,8.2,1.4,16.5,2.1,24.7c0.1,1.7,0.3,3.5,0.4,5.2c0.1,0.9,0.2,1.8,0.2,2.7c-2.5-0.7-5.1-1.3-7.7-1.9 c-0.1-1-0.2-2-0.2-3.1c-0.1-1.7-0.3-3.4-0.4-5.1c-0.6-7.6-1.1-15.1-1.7-22.6H121.6z M130.2-86.8c2.7,0,6.2,2.7,6.5,5.3 c0.3,3.1,0.6,6.2,0.8,9.4c0.2,2.2-0.9,3.3-3.4,3.4c0,0.1,0,0.2,0,0.3c2.6,1.1,4,2.8,4.2,4.9c0.2,2.5,0.4,4.9,0.7,7.4 c0.2,1.9,0.3,3.7,0.5,5.6c0.1,0.6,0.1,1.2,0.2,1.8c-2.5-1.1-4.9-2-7.4-2.9c-0.1-0.8-0.1-1.5-0.2-2.3c-0.2-1.8-0.3-3.6-0.5-5.4 c-0.2-2.4-0.4-4.9-0.7-7.3c-2.1-0.4-4.1-0.8-6.2-1.2c-0.1-1.7-0.3-3.4-0.4-5.1c2,0.3,4.1,0.5,6.1,0.8c-0.3-3.2-0.6-6.3-0.8-9.5 c-2-0.1-4-0.2-6-0.3c-0.1-1.7-0.3-3.3-0.4-5H130.2z M145.6-86.8h1.2c1,11.9,2,24,2.9,36.2c0.2,2,0.3,3.9,0.5,5.9 c0,0.4,0.1,0.8,0.1,1.2c-0.4-0.2-0.8-0.4-1.2-0.7c-1.2-0.7-2.5-1.9-3.7-3.3c-1.5-1.8-2.7-3.9-2.8-5.3c0-0.6-0.1-1.1-0.1-1.7 c-0.8-9-1.6-18-2.3-26.8C139.8-83.9,142.9-86.8,145.6-86.8z M156-86.8c2.6-0.1,6.2,3.8,6.4,7.4c0.7,12.7,1.5,25.6,2.2,38.6 c0,0.2,0,0.4,0,0.6c-0.1,2.4-1.7,3.6-3.5,3.3c-0.6-0.1-1.2-0.3-1.8-0.8c-2.5-1.8-5-3.4-7.6-4.9c0-0.4-0.1-0.7-0.1-1.1 c-0.2-1.9-0.3-3.8-0.4-5.8c0.7,0.3,1.4,0.7,2.1,1.1c1.5,0.8,2.9,1.5,4.4,2.4c-0.8-11.3-1.6-22.5-2.3-33.6 c-2.2-0.2-4.4-0.4-6.5-0.6c-0.2-2.2-0.4-4.4-0.5-6.6H156z M172.6-86.8c5.6,19.3,10.1,40.1,14.1,69.3c0.3,2,0.6,4,0.8,6.1 c-1.8-2.6-3.7-5.1-5.5-7.4c-0.3-1.9-0.6-3.9-1-5.7c-4.5-26.3-9.3-44.8-15.1-62.2H172.6z M188.2-86.8c0,23.8-0.7,44-0.7,67.6 c-2-14.6-3.6-24.3-6-36.3c-0.2-10.4-0.3-20.9-0.5-31.2H188.2z M168.7-30.2c0-0.1,0-0.1,0-0.2c-0.1-2.3-0.2-4.5-0.3-6.8 c-0.7-14.9-1.4-29.6-2.2-44.1c2.8,8.8,5.5,18.5,8.1,29.4C174.5-45,174.8-38,175-31c0.1,2.4,0.2,4.7,0.2,7.1 c-0.9-0.9-1.8-1.9-2.7-2.7C171.3-27.9,170-29.1,168.7-30.2z M-17-6l16,4.9c0.7-1.1,1.5-2.1,2.3-3.2c0.1-0.2,0.3-0.4,0.4-0.6 C20.8-30.4,51.4-47,85.9-47c34.5,0,65.1,16.6,84.2,42.2c0.1,0.2,0.3,0.4,0.4,0.6c0.8,1,1.5,2.1,2.3,3.2l16-4.9l4.8-1.5l3.6-1.1 v-3.9v-0.7v-82.6H-25.3v82.5v0.7v3.9l3.6,1.1L-17-6z"/> <path d="M-19.8,101.6l0.1,0.2l-2.7,1.2l-0.8-1.8l0.9-2.2l9.6-4.1l1.4,3.2L-19.8,101.6z M-9.5,101.8l-9.7,4.2l-2.2-0.9 l-0.8-1.8l2.7-1.2l0.1,0.2l8.5-3.7L-9.5,101.8z M-14.4,114.9l4.6-5.8l3.2-1.7l1.5,2.6L-14.4,114.9z M-9,103.2l1.4,2.5l-7.5,9.6 l-0.9,0.5l-1.4-2.5l7.5-9.6L-9,103.2z M-10.4,104l-4.6,5.9l-3.2,1.7l-1.5-2.6L-10.4,104z M-4.4,111.4l1.8,2.9l-10.2,6.5l-1.8-2.9 L-4.4,111.4z M-3.3,119.1l2,2.7l-7,5l-2-2.7L-3.3,119.1z M0.1,123.3l-4.4-6.1l2.6-1.9l4.4,6.1L0.1,123.3z M3.4,122.3l2.2,2.6 l-9.3,7.9l-2.2-2.6L3.4,122.3z M-1.1,131.1l1.7,2l-2.3,2l-1.7-2L-1.1,131.1z M0.2,129.9l2.3-2l1.5,1.8l-2.3,2L0.2,129.9z M7.6,127.2l-2.3,2l-1.7-2l2.3-2L7.6,127.2z M8.3,128.1l2.4,2.4L2.2,139l-2.4-2.4L8.3,128.1z M12.6,132.4v2.3l-6.2,6.2l-2.4,0 l-1.6-1.6l2-2l0.3,0.3l4.6-4.6l-0.3-0.3l2-2L12.6,132.4z M16.2,145.2l1.9-2.4l1.8,1.4l-1.9,2.4L16.2,145.2z M22.9,141.1l-1.9,2.4 l-2.1-1.6l1.9-2.4L22.9,141.1z M17.9,137.1l2.7,2.1l-7.6,9.4l-2.7-2.1L17.9,137.1z M13.2,148.9l1.9-2.3l2.1,1.6l-1.9,2.3 L13.2,148.9z M25.7,143.1l-2.9,5.6l-3.2,4.9l-2.3-1.5l6.6-10.2L25.7,143.1z M30.5,146.1l-3.5,5.5l-3.5,4.4l-3.1-2l5.6-10.8 l2.4,1.5l-4.7,7.8l0.2,0.1l5.2-7.5L30.5,146.1z M30.8,146.4l2.6,1.7l-6.6,10.2l-2.6-1.7L30.8,146.4z M41.1,153.6l-2.2,4.3 l-2.2,0.7l-2.1-1.1l1.2-2.3l0.5,0.3l1.4-2.7l-0.5-0.3l1.2-2.3l2.1,1.1L41.1,153.6z M34.8,148.7l3.1,1.5L32.4,161l-3.1-1.5 L34.8,148.7z M43.2,152.6l3.1,1.3l-4.7,11.2l-3.1-1.3L43.2,152.6z M47.9,154.7l3.3,1.1l-3.9,11.5l-3.3-1.1L47.9,154.7z M53.9,156.8l1.1,2.1l-1.4,4l-1.6,0.8l-0.2,5.1l-3.3-1.1l0.5-4.2l0.9-2.7l0.8,0.3l0.8-2.3l-0.8-0.3l0.8-2.4L53.9,156.8z M58.6,165.7l0.7-3l2.2,0.6l-0.7,3L58.6,165.7z M59.6,161.4l0.8-2.9l2.6,0.6l-0.8,2.9L59.6,161.4z M57.5,170.2l0.8-2.9l2.6,0.6 l-0.7,2.9L57.5,170.2z M56.7,157.7l3.3,0.8l-3,11.7l-3.3-0.8L56.7,157.7z M72,160.6l2,0.3l1.5,1.8l-1.1,8.6l-1.9,1.4l-2-0.3 l0.4-2.8l0.2,0l0.8-6.4l-0.2,0L72,160.6z M70.2,169.7l0.2,0l-0.4,2.8l-2-0.3l-1.5-1.8l1.1-8.6l1.9-1.4l2,0.3l-0.4,2.8l-0.2,0 L70.2,169.7z M77.1,161.2l3.4,0.2l-0.6,12l-3.4-0.2L77.1,161.2z M80.5,169.3l0.2-3l2.2,0.1l-0.2,3L80.5,169.3z M80.7,164.4l0.1-3 l2.4,0.1l-0.1,3L80.7,164.4z M92.5,164.2l-0.2-3l2.6-0.1l0.2,3L92.5,164.2z M94.9,165.4l0.2,3l-2.4,0.1l-0.2-3L94.9,165.4z M92.7,170.4l2.8-0.2l0.2,3l-2.8,0.1L92.7,170.4z M88.5,161.4l3.5-0.2l0.7,12.2l-3.5,0.2L88.5,161.4z M99.4,160.6l0.9,4l0.5,7.9 l-3.3,0.4l-0.1-12.1L99.4,160.6z M99.7,160.5l2.7-0.4l3.2,11.7l-3.3,0.5l-0.4-2l-0.9,0.1l-0.2-2.8l0.5-0.1L99.7,160.5z M105.2,159.7l3.4-0.8l2.7,11.8l-3.4,0.8L105.2,159.7z M114.2,163.7l-0.9,1.5l2.5,4.5l-3.4,0.8l-1.8-3.8l-0.6-2.8l0.8-0.2 l-0.5-2.4l-0.8,0.2l-0.6-2.5l2.5-0.6l2,1.3L114.2,163.7z M114.8,160.8l-0.9-3l7.1-2.2l0.9,3L114.8,160.8z M116.8,160.4l3.3-1 l2.6,8.2l-3.3,1L116.8,160.4z M126.3,153.3l3.2-1.3l4.6,11.3l-3.2,1.3l-1.6-3.8l-0.7,0.3l-1.3-3.2l0.7-0.3L126.3,153.3z M122,155 l3.2-1.3l4.6,11.3l-3.2,1.3L122,155z M138.2,151.8l1.4,0.4l1.2,2.3l-0.4,1.4l-1.6,0.9l-1.4-0.4l-1.2-2.3l0.4-1.4L138.2,151.8z M146.1,145.8l0.8,1.1l-2.8,1.9l-1.4-2.1l0.4-2.3l1.6-1.1l1.6,2.3L146.1,145.8z M151.2,148.7l-2.2,1.5l2.2,3.3l-2.8,1.9l-3.2-4.7 l0.4-1.9l2.2-1.5l-1.3-1.8l-0.1,0.1l-1.6-2.3l1.6-1.1l2.3,0.4l2.9,4.2L151.2,148.7z M149.9,150.8l3.1-2.1l1.7,2.5l-3.1,2.1 L149.9,150.8z M151.3,138.6l10.9,5.4l0.6,0.8l-2.2,1.8l-10.9-5.4l-0.6-0.7L151.3,138.6z M161.9,143.4l-6.8-3.3l-2.3-2.7l2.4-1.9 L161.9,143.4z M150.1,141.7l6.8,3.3l2.3,2.7l-2.4,1.9L150.1,141.7z M160.5,130.2l2.4,0l6.2,6.3l0,2.4l-1.6,1.6l-2-2l0.3-0.3 l-4.6-4.7l-0.3,0.3l-2-2L160.5,130.2z M156.2,134.5l2.5-2.4l8.5,8.7l-2.5,2.4L156.2,134.5z M167.6,122.3l1.6-1.9l2.4,1.9l-1.6,1.9 L167.6,122.3z M175.2,125.4l-1.4,1.6l-2.4-1.9l1.4-1.6L175.2,125.4z M165.3,125.1l2.2-2.6l9.4,7.6l-2.2,2.6L165.3,125.1z M179.6,121.4l1.2-1.7l2.6,1.7l-1.2,1.7L179.6,121.4z M170.1,119.2l2-2.8l10,7l-2,2.8L170.1,119.2z M174.1,113.3l1.8-2.9l10.5,6.3 l-1.8,2.9L174.1,113.3z M176,110l1.4-2.2l2.6,1.5l-1.4,2.2L176,110z M183.6,111.9l-1.2,2l-2.6-1.6l1.2-2L183.6,111.9z M183.8,114.7l1.4-2.2l2.6,1.5l-1.4,2.2L183.8,114.7z M186.6,106.6l-2.8-1.3l1-2l2.8,1.3L186.6,106.6z M188,107.3l1.2-2.4l2.8,1.4 l-1.2,2.4L188,107.3z M179.8,103.3l1.2-2.4l2.8,1.4l-1.2,2.4L179.8,103.3z M178.1,106.7l1.5-3.1l10.9,5.5l-1.5,3.1L178.1,106.7z M185.8,93.8l1.4,0.6l-2.8,7l-2.9-1.2l2.3-5.6l0.3-0.9l0.2-0.5l0.6,0.2L185.8,93.8z M185.5,99.7l1.3-3.2l8,3.3l-1.3,3.2 L185.5,99.7z M145,128.6l-1.8,1.4c-16.2,12.6-36.6,19.5-57.3,19.5c-20.7,0-41-6.9-57.3-19.5l-1.8-1.4l5.9-5.9l0.3,0.2 c14.5,11.5,32.9,18.4,52.9,18.4c20.1,0,38.6-7,53.2-18.6L145,128.6z M28.6-16.1c16.2-12.6,36.6-19.5,57.3-19.5 c20.7,0,41,6.9,57.3,19.5l1.8,1.4l-5.9,5.9l-0.3-0.2c-14.5-11.5-32.9-18.3-52.9-18.3c-20.1,0-38.6,7-53.2,18.6l-5.9-5.9L28.6-16.1 z M73.1,151.9v4.7c-36.3-4.4-66.7-28-80.5-60.3c-0.1-0.3-0.2-0.6-0.4-0.9c-0.6-1.5-1.2-3-1.8-4.6l5.8,2.1c0.6,1.6,1.3,3.1,2.1,4.7 c0.1,0.3,0.3,0.6,0.4,0.9C12.6,127,40.3,147.7,73.1,151.9z M173,97.6c0.7-1.5,1.4-3.1,2.1-4.7l5.8-2.1c-0.6,1.5-1.2,3.1-1.8,4.6 c-0.1,0.3-0.2,0.6-0.4,0.9c-13.8,32.3-44.2,55.9-80.5,60.3v-4.7c32.9-4.2,60.5-24.9,74.4-53.4C172.7,98.2,172.9,97.9,173,97.6z M161.5-2.3c-15.2-19.2-37.7-32.5-63.3-35.8v-4.7c27.7,3.4,52,17.9,68.1,39c0.1,0.2,0.3,0.4,0.4,0.6c0.8,1,1.5,2.1,2.3,3.2 l-4.7,1.4c-0.8-1.1-1.6-2.1-2.4-3.2C161.8-1.9,161.7-2.1,161.5-2.3z M5.2-3.8c16.1-21,40.4-35.6,68.1-39v4.7 C47.7-34.8,25.3-21.5,10-2.3C9.9-2.1,9.7-1.9,9.5-1.7C8.7-0.7,8,0.4,7.2,1.4L2.5,0C3.2-1.1,4-2.2,4.8-3.2C4.9-3.4,5.1-3.6,5.2-3.8 z M-35,19.3l-0.7-0.2l-26.7-8.3l-7.1-29.7l33.9,10.5l0.7,0.2l3.4,1l6.2,1.9l1.8,0.6l4.7,1.5L-3,1.7l3.6,1.1l4.6,1.4l11.6,3.6 c-1,1.4-2,2.9-3,4.4c-1.3,2-2.5,4.1-3.6,6.2c-0.6,1.1-1.1,2.2-1.6,3.3c-0.1,0.2-0.2,0.5-0.3,0.7c-1.3,3-2.5,6-3.5,9.2l-11.1-3.4 l-4.5-1.4l-3.5-1.1l-10.7-3.3l-2.2-0.7l-2.5-0.8l-4.6-1.4L-35,19.3z M195.2-4.7l1.8-0.6l6.2-1.9l3.4-1l0.7-0.2l33.9-10.4 l-6.8,29.5l-27,8.3l-0.7,0.2l-0.8,0.3l-4.6,1.4l-2.6,0.8l-2.2,0.7l-10.6,3.3l-3.5,1.1l-4.5,1.4l-11.1,3.4c-1-3.1-2.2-6.2-3.5-9.1 c-0.1-0.2-0.2-0.5-0.3-0.7c-0.5-1.1-1.1-2.2-1.6-3.3c-1.1-2.1-2.3-4.2-3.6-6.2c-0.9-1.5-1.9-3-3-4.4l11.6-3.6l4.6-1.4l3.6-1.1 l15.9-4.9L195.2-4.7z M202.4,25.3l4.6-1.4l25.4-7.8l-5.7,24.3L211,45.8l-4.7,1.6l-15.8,5.4l-19.8,6.7c0-0.9,0-1.7,0-2.6 c0-7.2-0.9-14.2-2.7-20.9l11.1-3.4l4.5-1.4l3.5-1.1L202.4,25.3z M-34.7,47.5l-4.7-1.6L-55,40.6L-61,16.3l25.4,7.8l4.6,1.4 l15.4,4.8l3.5,1.1l4.5,1.4l11.1,3.4C1.8,42.9,0.9,49.8,0.9,57c0,0.9,0,1.7,0,2.6l-19.9-6.8L-34.7,47.5z M209.9,76.8l-5.2,1.9 l-18,6.5l-4.2,1.5l-5.6,2L162.1,94c4.3-8.8,7.2-18.5,8.2-28.7l20.3-6.8l16-5.4l4.8-1.6l14.2-4.7l-6.6,26.7L209.9,76.8z M-10.8,86.9l-4.3-1.5l-18-6.5l-5.2-1.9l-9.3-3.4L-54,47.3l14.2,4.7l4.8,1.6L-19,59l20.3,6.8c1.1,10.1,3.9,19.7,8.3,28.5 l-14.8-5.3L-10.8,86.9z"/> <path d="M144.8,89.1v11.1v3.7v1.4H141h-10.3h-43V92.9v-3.8h11.4H144.8z M15.5,65.5l0.4-0.7l11.8-21.1l2.4-4.2l9.5-17 l0.4-0.7l1.9-3.3l1.3-2.4l1.7-3l0.4-0.8l1.4-2.6L47,9.1l3.4-6v7v0.7v1.4v2.5v3.5v0.2v3.3v0.7v8.8l-6.8,12.3l-2.3,4.2L29.9,68.7 h20.5v7.9v5.6v0.9H15.5V70.6V65.5z M54.1-0.6h18.4v12.9V17v0.7v0.8v3.1v0.2v0.7v2.6v27.4v5v11.1h9.8v14.4h-9.8v1v5.5v15.7H54.1 V83.4v-5.6v-26v-5V22.5v-0.7v-2.4v-1v-2.6v-3.6V12v-0.7V-0.6z M104.3-0.6h18.4V9.6v0.7v2v1.9v1.4h-4.4h-12.3v2.9v0.9v2.5v0.7v0.4 V30H88.9v-1.9v-3.5v-2.1v-0.7v-1.1V20v-1.6v-4.2c0-0.7,0.1-1.3,0.2-2C90.5,5.8,97.9-0.6,104.3-0.6z M126.4-0.6h3 c3.5,0,7.4,2,10.4,4.9c0.2,0.2,0.4,0.4,0.5,0.5c0.9,1,1.8,2,2.4,3.1c0.6,1,1.1,2,1.5,3.1c0.1,0.4,0.2,0.8,0.3,1.2 c0.1,0.7,0.2,1.3,0.2,2v4.2v3.3v0.7v15.8V41l-3.4,3.2l-35.4,33.6v3.7v3.9H94.5h-6.9V69.2l13.9-12.7l8-7.3l16.8-15.3V22.5v-0.7 v-3.3v-1.9v-3.5v-0.8V9.2V8.5V-0.6z M167.7,60.6c0.1-1.2,0.1-2.4,0.1-3.5c0-6.9-0.9-13.7-2.5-20.1c-0.4-1.5-0.8-3-1.3-4.4 c-1.1-3.4-2.4-6.7-3.9-9.9c-0.1-0.2-0.2-0.5-0.3-0.7c-0.5-1.1-1.1-2.2-1.7-3.3c-1.1-2.1-2.4-4.2-3.7-6.2c-0.8-1.2-1.6-2.4-2.5-3.5 c-0.7-1-1.4-1.9-2.2-2.8c-0.8-1-1.7-2.1-2.6-3.1c-0.2-0.2-0.3-0.4-0.5-0.6c-15-16.5-36.7-26.8-60.8-26.8 c-24.1,0-45.8,10.4-60.8,26.8c-0.2,0.2-0.3,0.4-0.5,0.6c-0.9,1-1.8,2-2.6,3.1c-0.8,0.9-1.5,1.9-2.2,2.9c-0.8,1.1-1.7,2.3-2.5,3.5 c-1.3,2-2.6,4.1-3.7,6.2c-0.6,1.1-1.2,2.2-1.7,3.3c-0.1,0.2-0.2,0.5-0.3,0.7c-1.5,3.2-2.8,6.5-3.9,10C6.9,34,6.4,35.5,6,37 c-1.6,6.4-2.5,13.1-2.5,20c0,1.2,0,2.4,0.1,3.6c0.1,2.1,0.3,4.1,0.5,6.2c1.2,10.4,4.5,20.1,9.2,28.9c0.8,1.5,1.7,3,2.6,4.4 c1.1,1.8,2.3,3.5,3.6,5.2c0.2,0.3,0.5,0.7,0.8,1c15,19.6,38.7,32.2,65.3,32.2c26.6,0,50.4-12.7,65.4-32.3c0.3-0.3,0.5-0.7,0.8-1 c1.3-1.7,2.4-3.4,3.6-5.2c1-1.5,1.9-3.1,2.7-4.7c4.8-8.8,7.9-18.6,9.1-29C167.5,64.5,167.6,62.5,167.7,60.6z"/> <g> <path id="inactive-copy-a" d="M227.3-95.9v4.2h4.2c1.8,0,2.7-0.7,2.7-2.2c0-1.5-0.9-2-2.7-2H227.3z M236.1-94 c0,1.7-0.5,3.3-1.9,3.7l3.4,4.4c0.1,0.1,0.1,0.3-0.1,0.3h-1.7c-0.3,0-0.4-0.1-0.5-0.3l-3.4-4h-4.6v4c0,0.1,0,0.2-0.2,0.2h-1.3 c-0.2,0-0.2,0-0.2-0.2v-11.3c0-0.1,0-0.2,0.2-0.2c1.5-0.1,3.9-0.2,5.3-0.2C234.6-97.6,236.1-96.4,236.1-94z M241.1-92 c0-7-3-10.1-10.2-10.1c-7.1,0-10.3,3-10.3,10.1c0,7,3.2,9.9,10.3,9.9C238-82.1,241.1-85,241.1-92z M230.9-103.9 c8.4,0,12,3.6,12,11.8c0,8.2-3.6,11.7-12,11.7s-12.2-3.5-12.2-11.7C218.8-100.3,222.6-103.9,230.9-103.9z"/> </g> </g> </g> </svg>